<svg width="718" height="629" viewBox="0 0 718 629" fill="none" xmlns="http://www.w3.org/2000/svg">
<rect width="717.622" height="629" rx="16" fill="#232323"/>
<path d="M0 348.331H288.219C304.788 348.331 318.219 361.762 318.219 378.331V629H30C13.4315 629 0 615.568 0 599V348.331Z" fill="#424242"/>
<path d="M396.781 0H685C701.568 0 715 13.4315 715 30V253.73H426.781C410.212 253.73 396.781 240.299 396.781 223.73V0Z" fill="#424242"/>
<path d="M396.781 378.331C396.781 361.762 410.212 348.331 426.781 348.331H715V599C715 615.568 701.569 629 685 629H396.781V378.331Z" fill="#424242"/>
<path d="M0 30C0 13.4315 13.4315 0 30 0H318.219V223.73C318.219 240.299 304.788 253.73 288.219 253.73H0V30Z" fill="#424242"/>
<rect x="70" y="134" width="158.989" height="109.713" rx="15" fill="#191919"/>
<rect width="1.47777" height="25.3915" transform="matrix(0.90392 0.427701 -0.469298 0.88304 171.63 149.362)" fill="white"/>
<path d="M89.2591 164.697C91.5631 162.705 93.3751 161.073 94.6951 159.801C96.0391 158.505 97.1551 157.161 98.0431 155.769C98.9311 154.377 99.3751 152.985 99.3751 151.593C99.3751 150.153 99.0271 149.025 98.3311 148.209C97.6591 147.393 96.5911 146.985 95.1271 146.985C93.7111 146.985 92.6071 147.441 91.8151 148.353C91.0471 149.241 90.6391 150.441 90.5911 151.953H86.6311C86.7031 149.217 87.5191 147.129 89.0791 145.689C90.6631 144.225 92.6671 143.493 95.0911 143.493C97.7071 143.493 99.7471 144.213 101.211 145.653C102.699 147.093 103.443 149.013 103.443 151.413C103.443 153.141 102.999 154.809 102.111 156.417C101.247 158.001 100.203 159.429 98.9791 160.701C97.7791 161.949 96.2431 163.401 94.3711 165.057L92.7511 166.497H104.163V169.917H86.6671V166.929L89.2591 164.697ZM105.248 156.813C105.248 152.661 105.944 149.421 107.336 147.093C108.752 144.741 111.176 143.565 114.608 143.565C118.04 143.565 120.452 144.741 121.844 147.093C123.26 149.421 123.968 152.661 123.968 156.813C123.968 161.013 123.26 164.301 121.844 166.677C120.452 169.029 118.04 170.205 114.608 170.205C111.176 170.205 108.752 169.029 107.336 166.677C105.944 164.301 105.248 161.013 105.248 156.813ZM119.936 156.813C119.936 154.869 119.804 153.225 119.54 151.881C119.3 150.537 118.796 149.445 118.028 148.605C117.26 147.741 116.12 147.309 114.608 147.309C113.096 147.309 111.956 147.741 111.188 148.605C110.42 149.445 109.904 150.537 109.64 151.881C109.4 153.225 109.28 154.869 109.28 156.813C109.28 158.829 109.4 160.521 109.64 161.889C109.88 163.257 110.384 164.361 111.152 165.201C111.944 166.041 113.096 166.461 114.608 166.461C116.12 166.461 117.26 166.041 118.028 165.201C118.82 164.361 119.336 163.257 119.576 161.889C119.816 160.521 119.936 158.829 119.936 156.813Z" fill="white"/>
<path d="M128.73 151.54C128.73 150.633 128.911 149.839 129.274 149.156C129.647 148.463 130.159 147.929 130.81 147.556C131.46 147.183 132.207 146.996 133.05 146.996C134.116 146.996 134.996 147.252 135.69 147.764C136.394 148.265 136.868 148.985 137.114 149.924H135.146C134.986 149.487 134.73 149.145 134.378 148.9C134.026 148.655 133.583 148.532 133.05 148.532C132.303 148.532 131.706 148.799 131.258 149.332C130.82 149.855 130.602 150.591 130.602 151.54C130.602 152.489 130.82 153.231 131.258 153.764C131.706 154.297 132.303 154.564 133.05 154.564C134.106 154.564 134.804 154.1 135.146 153.172H137.114C136.858 154.068 136.378 154.783 135.674 155.316C134.97 155.839 134.095 156.1 133.05 156.1C132.207 156.1 131.46 155.913 130.81 155.54C130.159 155.156 129.647 154.623 129.274 153.94C128.911 153.247 128.73 152.447 128.73 151.54ZM137.203 151.508C137.203 150.623 137.385 149.839 137.747 149.156C138.121 148.473 138.622 147.945 139.251 147.572C139.891 147.188 140.595 146.996 141.363 146.996C142.057 146.996 142.659 147.135 143.171 147.412C143.694 147.679 144.11 148.015 144.419 148.42V147.14H146.259V155.956H144.419V154.644C144.11 155.06 143.689 155.407 143.155 155.684C142.622 155.961 142.014 156.1 141.331 156.1C140.574 156.1 139.881 155.908 139.251 155.524C138.622 155.129 138.121 154.585 137.747 153.892C137.385 153.188 137.203 152.393 137.203 151.508ZM144.419 151.54C144.419 150.932 144.291 150.404 144.035 149.956C143.79 149.508 143.465 149.167 143.059 148.932C142.654 148.697 142.217 148.58 141.747 148.58C141.278 148.58 140.841 148.697 140.435 148.932C140.03 149.156 139.699 149.492 139.443 149.94C139.198 150.377 139.075 150.9 139.075 151.508C139.075 152.116 139.198 152.649 139.443 153.108C139.699 153.567 140.03 153.919 140.435 154.164C140.851 154.399 141.289 154.516 141.747 154.516C142.217 154.516 142.654 154.399 143.059 154.164C143.465 153.929 143.79 153.588 144.035 153.14C144.291 152.681 144.419 152.148 144.419 151.54ZM149.359 148.42C149.626 147.972 149.978 147.625 150.415 147.38C150.863 147.124 151.391 146.996 151.999 146.996V148.884H151.535C150.821 148.884 150.277 149.065 149.903 149.428C149.541 149.791 149.359 150.42 149.359 151.316V155.956H147.535V147.14H149.359V148.42ZM155.756 156.1C155.062 156.1 154.438 155.977 153.884 155.732C153.34 155.476 152.908 155.135 152.588 154.708C152.268 154.271 152.097 153.785 152.076 153.252H153.964C153.996 153.625 154.172 153.94 154.492 154.196C154.822 154.441 155.233 154.564 155.724 154.564C156.236 154.564 156.63 154.468 156.908 154.276C157.196 154.073 157.34 153.817 157.34 153.508C157.34 153.177 157.18 152.932 156.86 152.772C156.55 152.612 156.054 152.436 155.372 152.244C154.71 152.063 154.172 151.887 153.756 151.716C153.34 151.545 152.977 151.284 152.668 150.932C152.369 150.58 152.22 150.116 152.22 149.54C152.22 149.071 152.358 148.644 152.636 148.26C152.913 147.865 153.308 147.556 153.82 147.332C154.342 147.108 154.94 146.996 155.612 146.996C156.614 146.996 157.42 147.252 158.028 147.764C158.646 148.265 158.977 148.953 159.02 149.828H157.196C157.164 149.433 157.004 149.119 156.716 148.884C156.428 148.649 156.038 148.532 155.548 148.532C155.068 148.532 154.7 148.623 154.444 148.804C154.188 148.985 154.06 149.225 154.06 149.524C154.06 149.759 154.145 149.956 154.316 150.116C154.486 150.276 154.694 150.404 154.94 150.5C155.185 150.585 155.548 150.697 156.028 150.836C156.668 151.007 157.19 151.183 157.596 151.364C158.012 151.535 158.369 151.791 158.668 152.132C158.966 152.473 159.121 152.927 159.132 153.492C159.132 153.993 158.993 154.441 158.716 154.836C158.438 155.231 158.044 155.54 157.532 155.764C157.03 155.988 156.438 156.1 155.756 156.1Z" fill="white"/>
<path d="M180.35 159.871C181.044 159.871 181.662 160.015 182.206 160.303C182.761 160.591 183.193 161.017 183.502 161.583C183.822 162.148 183.982 162.831 183.982 163.631V168.831H182.174V163.903C182.174 163.113 181.977 162.511 181.582 162.095C181.188 161.668 180.649 161.455 179.966 161.455C179.284 161.455 178.74 161.668 178.334 162.095C177.94 162.511 177.742 163.113 177.742 163.903V168.831H175.934V163.903C175.934 163.113 175.737 162.511 175.342 162.095C174.948 161.668 174.409 161.455 173.726 161.455C173.044 161.455 172.5 161.668 172.094 162.095C171.7 162.511 171.502 163.113 171.502 163.903V168.831H169.678V160.015H171.502V161.023C171.801 160.66 172.18 160.377 172.638 160.175C173.097 159.972 173.588 159.871 174.11 159.871C174.814 159.871 175.444 160.02 175.998 160.319C176.553 160.617 176.98 161.049 177.278 161.615C177.545 161.081 177.961 160.66 178.526 160.351C179.092 160.031 179.7 159.871 180.35 159.871ZM186.111 158.847C185.781 158.847 185.503 158.735 185.279 158.511C185.055 158.287 184.943 158.009 184.943 157.679C184.943 157.348 185.055 157.071 185.279 156.847C185.503 156.623 185.781 156.511 186.111 156.511C186.431 156.511 186.703 156.623 186.927 156.847C187.151 157.071 187.263 157.348 187.263 157.679C187.263 158.009 187.151 158.287 186.927 158.511C186.703 158.735 186.431 158.847 186.111 158.847ZM187.007 160.015V168.831H185.183V160.015H187.007ZM192.73 159.871C193.423 159.871 194.042 160.015 194.586 160.303C195.141 160.591 195.573 161.017 195.882 161.583C196.191 162.148 196.346 162.831 196.346 163.631V168.831H194.538V163.903C194.538 163.113 194.341 162.511 193.946 162.095C193.551 161.668 193.013 161.455 192.33 161.455C191.647 161.455 191.103 161.668 190.698 162.095C190.303 162.511 190.106 163.113 190.106 163.903V168.831H188.282V160.015H190.106V161.023C190.405 160.66 190.783 160.377 191.242 160.175C191.711 159.972 192.207 159.871 192.73 159.871Z" fill="white"/>
<rect x="238" y="150" width="71.189" height="94.0398" rx="15" fill="#191919"/>
<ellipse cx="256.755" cy="226.25" rx="12.7547" ry="12.0349" fill="#5D5D5D"/>
<ellipse cx="291.163" cy="226.25" rx="12.7547" ry="12.0349" fill="#5D5D5D"/>
<ellipse cx="256.755" cy="197.143" rx="12.7547" ry="12.0349" fill="#5D5D5D"/>
<ellipse cx="256.755" cy="168.035" rx="12.7547" ry="12.0349" fill="#E31919"/>
<path d="M296.418 228.172L291.672 232.65L286.926 228.172" stroke="white" stroke-width="2"/>
<path d="M296.418 219.962L291.672 224.44L286.926 219.962" stroke="white" stroke-width="2"/>
<rect x="409" y="134" width="158.989" height="109.713" rx="15" fill="#191919"/>
<rect width="1.47777" height="25.3915" transform="matrix(0.90392 0.427701 -0.469298 0.88304 510.63 149.362)" fill="white"/>
<path d="M428.259 164.697C430.563 162.705 432.375 161.073 433.695 159.801C435.039 158.505 436.155 157.161 437.043 155.769C437.931 154.377 438.375 152.985 438.375 151.593C438.375 150.153 438.027 149.025 437.331 148.209C436.659 147.393 435.591 146.985 434.127 146.985C432.711 146.985 431.607 147.441 430.815 148.353C430.047 149.241 429.639 150.441 429.591 151.953H425.631C425.703 149.217 426.519 147.129 428.079 145.689C429.663 144.225 431.667 143.493 434.091 143.493C436.707 143.493 438.747 144.213 440.211 145.653C441.699 147.093 442.443 149.013 442.443 151.413C442.443 153.141 441.999 154.809 441.111 156.417C440.247 158.001 439.203 159.429 437.979 160.701C436.779 161.949 435.243 163.401 433.371 165.057L431.751 166.497H443.163V169.917H425.667V166.929L428.259 164.697ZM444.248 156.813C444.248 152.661 444.944 149.421 446.336 147.093C447.752 144.741 450.176 143.565 453.608 143.565C457.04 143.565 459.452 144.741 460.844 147.093C462.26 149.421 462.968 152.661 462.968 156.813C462.968 161.013 462.26 164.301 460.844 166.677C459.452 169.029 457.04 170.205 453.608 170.205C450.176 170.205 447.752 169.029 446.336 166.677C444.944 164.301 444.248 161.013 444.248 156.813ZM458.936 156.813C458.936 154.869 458.804 153.225 458.54 151.881C458.3 150.537 457.796 149.445 457.028 148.605C456.26 147.741 455.12 147.309 453.608 147.309C452.096 147.309 450.956 147.741 450.188 148.605C449.42 149.445 448.904 150.537 448.64 151.881C448.4 153.225 448.28 154.869 448.28 156.813C448.28 158.829 448.4 160.521 448.64 161.889C448.88 163.257 449.384 164.361 450.152 165.201C450.944 166.041 452.096 166.461 453.608 166.461C455.12 166.461 456.26 166.041 457.028 165.201C457.82 164.361 458.336 163.257 458.576 161.889C458.816 160.521 458.936 158.829 458.936 156.813Z" fill="white"/>
<path d="M467.73 151.54C467.73 150.633 467.911 149.839 468.274 149.156C468.647 148.463 469.159 147.929 469.81 147.556C470.46 147.183 471.207 146.996 472.05 146.996C473.116 146.996 473.996 147.252 474.69 147.764C475.394 148.265 475.868 148.985 476.114 149.924H474.146C473.986 149.487 473.73 149.145 473.378 148.9C473.026 148.655 472.583 148.532 472.05 148.532C471.303 148.532 470.706 148.799 470.258 149.332C469.82 149.855 469.602 150.591 469.602 151.54C469.602 152.489 469.82 153.231 470.258 153.764C470.706 154.297 471.303 154.564 472.05 154.564C473.106 154.564 473.804 154.1 474.146 153.172H476.114C475.858 154.068 475.378 154.783 474.674 155.316C473.97 155.839 473.095 156.1 472.05 156.1C471.207 156.1 470.46 155.913 469.81 155.54C469.159 155.156 468.647 154.623 468.274 153.94C467.911 153.247 467.73 152.447 467.73 151.54ZM476.203 151.508C476.203 150.623 476.385 149.839 476.747 149.156C477.121 148.473 477.622 147.945 478.251 147.572C478.891 147.188 479.595 146.996 480.363 146.996C481.057 146.996 481.659 147.135 482.171 147.412C482.694 147.679 483.11 148.015 483.419 148.42V147.14H485.259V155.956H483.419V154.644C483.11 155.06 482.689 155.407 482.155 155.684C481.622 155.961 481.014 156.1 480.331 156.1C479.574 156.1 478.881 155.908 478.251 155.524C477.622 155.129 477.121 154.585 476.747 153.892C476.385 153.188 476.203 152.393 476.203 151.508ZM483.419 151.54C483.419 150.932 483.291 150.404 483.035 149.956C482.79 149.508 482.465 149.167 482.059 148.932C481.654 148.697 481.217 148.58 480.747 148.58C480.278 148.58 479.841 148.697 479.435 148.932C479.03 149.156 478.699 149.492 478.443 149.94C478.198 150.377 478.075 150.9 478.075 151.508C478.075 152.116 478.198 152.649 478.443 153.108C478.699 153.567 479.03 153.919 479.435 154.164C479.851 154.399 480.289 154.516 480.747 154.516C481.217 154.516 481.654 154.399 482.059 154.164C482.465 153.929 482.79 153.588 483.035 153.14C483.291 152.681 483.419 152.148 483.419 151.54ZM488.359 148.42C488.626 147.972 488.978 147.625 489.415 147.38C489.863 147.124 490.391 146.996 490.999 146.996V148.884H490.535C489.821 148.884 489.277 149.065 488.903 149.428C488.541 149.791 488.359 150.42 488.359 151.316V155.956H486.535V147.14H488.359V148.42ZM494.756 156.1C494.062 156.1 493.438 155.977 492.884 155.732C492.34 155.476 491.908 155.135 491.588 154.708C491.268 154.271 491.097 153.785 491.076 153.252H492.964C492.996 153.625 493.172 153.94 493.492 154.196C493.822 154.441 494.233 154.564 494.724 154.564C495.236 154.564 495.63 154.468 495.908 154.276C496.196 154.073 496.34 153.817 496.34 153.508C496.34 153.177 496.18 152.932 495.86 152.772C495.55 152.612 495.054 152.436 494.372 152.244C493.71 152.063 493.172 151.887 492.756 151.716C492.34 151.545 491.977 151.284 491.668 150.932C491.369 150.58 491.22 150.116 491.22 149.54C491.22 149.071 491.358 148.644 491.636 148.26C491.913 147.865 492.308 147.556 492.82 147.332C493.342 147.108 493.94 146.996 494.612 146.996C495.614 146.996 496.42 147.252 497.028 147.764C497.646 148.265 497.977 148.953 498.02 149.828H496.196C496.164 149.433 496.004 149.119 495.716 148.884C495.428 148.649 495.038 148.532 494.548 148.532C494.068 148.532 493.7 148.623 493.444 148.804C493.188 148.985 493.06 149.225 493.06 149.524C493.06 149.759 493.145 149.956 493.316 150.116C493.486 150.276 493.694 150.404 493.94 150.5C494.185 150.585 494.548 150.697 495.028 150.836C495.668 151.007 496.19 151.183 496.596 151.364C497.012 151.535 497.369 151.791 497.668 152.132C497.966 152.473 498.121 152.927 498.132 153.492C498.132 153.993 497.993 154.441 497.716 154.836C497.438 155.231 497.044 155.54 496.532 155.764C496.03 155.988 495.438 156.1 494.756 156.1Z" fill="white"/>
<path d="M519.35 159.871C520.044 159.871 520.662 160.015 521.206 160.303C521.761 160.591 522.193 161.017 522.502 161.583C522.822 162.148 522.982 162.831 522.982 163.631V168.831H521.174V163.903C521.174 163.113 520.977 162.511 520.582 162.095C520.188 161.668 519.649 161.455 518.966 161.455C518.284 161.455 517.74 161.668 517.334 162.095C516.94 162.511 516.742 163.113 516.742 163.903V168.831H514.934V163.903C514.934 163.113 514.737 162.511 514.342 162.095C513.948 161.668 513.409 161.455 512.726 161.455C512.044 161.455 511.5 161.668 511.094 162.095C510.7 162.511 510.502 163.113 510.502 163.903V168.831H508.678V160.015H510.502V161.023C510.801 160.66 511.18 160.377 511.638 160.175C512.097 159.972 512.588 159.871 513.11 159.871C513.814 159.871 514.444 160.02 514.998 160.319C515.553 160.617 515.98 161.049 516.278 161.615C516.545 161.081 516.961 160.66 517.526 160.351C518.092 160.031 518.7 159.871 519.35 159.871ZM525.111 158.847C524.781 158.847 524.503 158.735 524.279 158.511C524.055 158.287 523.943 158.009 523.943 157.679C523.943 157.348 524.055 157.071 524.279 156.847C524.503 156.623 524.781 156.511 525.111 156.511C525.431 156.511 525.703 156.623 525.927 156.847C526.151 157.071 526.263 157.348 526.263 157.679C526.263 158.009 526.151 158.287 525.927 158.511C525.703 158.735 525.431 158.847 525.111 158.847ZM526.007 160.015V168.831H524.183V160.015H526.007ZM531.73 159.871C532.423 159.871 533.042 160.015 533.586 160.303C534.141 160.591 534.573 161.017 534.882 161.583C535.191 162.148 535.346 162.831 535.346 163.631V168.831H533.538V163.903C533.538 163.113 533.341 162.511 532.946 162.095C532.551 161.668 532.013 161.455 531.33 161.455C530.647 161.455 530.103 161.668 529.698 162.095C529.303 162.511 529.106 163.113 529.106 163.903V168.831H527.282V160.015H529.106V161.023C529.405 160.66 529.783 160.377 530.242 160.175C530.711 159.972 531.207 159.871 531.73 159.871Z" fill="white"/>
<rect x="577" y="150" width="71.189" height="94.0398" rx="15" fill="#191919"/>
<ellipse cx="595.687" cy="227.527" rx="12.7547" ry="12.0349" fill="#5D5D5D"/>
<ellipse cx="630.095" cy="227.527" rx="12.7547" ry="12.0349" fill="#5D5D5D"/>
<ellipse cx="595.687" cy="198.42" rx="12.7547" ry="12.0349" fill="#5D5D5D"/>
<ellipse cx="595.687" cy="169.312" rx="12.7547" ry="12.0349" fill="#E31919"/>
<path d="M635.35 229.449L630.604 233.927L625.858 229.449" stroke="white" stroke-width="2"/>
<path d="M635.35 221.239L630.604 225.717L625.858 221.239" stroke="white" stroke-width="2"/>
<rect x="67" y="363" width="158.989" height="109.713" rx="15" fill="#191919"/>
<rect width="1.47777" height="25.3915" transform="matrix(0.90392 0.427701 -0.469298 0.88304 168.63 378.362)" fill="white"/>
<path d="M86.2591 393.697C88.5631 391.705 90.3751 390.073 91.6951 388.801C93.0391 387.505 94.1551 386.161 95.0431 384.769C95.9311 383.377 96.3751 381.985 96.3751 380.593C96.3751 379.153 96.0271 378.025 95.3311 377.209C94.6591 376.393 93.5911 375.985 92.1271 375.985C90.7111 375.985 89.6071 376.441 88.8151 377.353C88.0471 378.241 87.6391 379.441 87.5911 380.953H83.6311C83.7031 378.217 84.5191 376.129 86.0791 374.689C87.6631 373.225 89.6671 372.493 92.0911 372.493C94.7071 372.493 96.7471 373.213 98.2111 374.653C99.6991 376.093 100.443 378.013 100.443 380.413C100.443 382.141 99.9991 383.809 99.1111 385.417C98.2471 387.001 97.2031 388.429 95.9791 389.701C94.7791 390.949 93.2431 392.401 91.3711 394.057L89.7511 395.497H101.163V398.917H83.6671V395.929L86.2591 393.697ZM102.248 385.813C102.248 381.661 102.944 378.421 104.336 376.093C105.752 373.741 108.176 372.565 111.608 372.565C115.04 372.565 117.452 373.741 118.844 376.093C120.26 378.421 120.968 381.661 120.968 385.813C120.968 390.013 120.26 393.301 118.844 395.677C117.452 398.029 115.04 399.205 111.608 399.205C108.176 399.205 105.752 398.029 104.336 395.677C102.944 393.301 102.248 390.013 102.248 385.813ZM116.936 385.813C116.936 383.869 116.804 382.225 116.54 380.881C116.3 379.537 115.796 378.445 115.028 377.605C114.26 376.741 113.12 376.309 111.608 376.309C110.096 376.309 108.956 376.741 108.188 377.605C107.42 378.445 106.904 379.537 106.64 380.881C106.4 382.225 106.28 383.869 106.28 385.813C106.28 387.829 106.4 389.521 106.64 390.889C106.88 392.257 107.384 393.361 108.152 394.201C108.944 395.041 110.096 395.461 111.608 395.461C113.12 395.461 114.26 395.041 115.028 394.201C115.82 393.361 116.336 392.257 116.576 390.889C116.816 389.521 116.936 387.829 116.936 385.813Z" fill="white"/>
<path d="M125.73 380.54C125.73 379.633 125.911 378.839 126.274 378.156C126.647 377.463 127.159 376.929 127.81 376.556C128.46 376.183 129.207 375.996 130.05 375.996C131.116 375.996 131.996 376.252 132.69 376.764C133.394 377.265 133.868 377.985 134.114 378.924H132.146C131.986 378.487 131.73 378.145 131.378 377.9C131.026 377.655 130.583 377.532 130.05 377.532C129.303 377.532 128.706 377.799 128.258 378.332C127.82 378.855 127.602 379.591 127.602 380.54C127.602 381.489 127.82 382.231 128.258 382.764C128.706 383.297 129.303 383.564 130.05 383.564C131.106 383.564 131.804 383.1 132.146 382.172H134.114C133.858 383.068 133.378 383.783 132.674 384.316C131.97 384.839 131.095 385.1 130.05 385.1C129.207 385.1 128.46 384.913 127.81 384.54C127.159 384.156 126.647 383.623 126.274 382.94C125.911 382.247 125.73 381.447 125.73 380.54ZM134.203 380.508C134.203 379.623 134.385 378.839 134.747 378.156C135.121 377.473 135.622 376.945 136.251 376.572C136.891 376.188 137.595 375.996 138.363 375.996C139.057 375.996 139.659 376.135 140.171 376.412C140.694 376.679 141.11 377.015 141.419 377.42V376.14H143.259V384.956H141.419V383.644C141.11 384.06 140.689 384.407 140.155 384.684C139.622 384.961 139.014 385.1 138.331 385.1C137.574 385.1 136.881 384.908 136.251 384.524C135.622 384.129 135.121 383.585 134.747 382.892C134.385 382.188 134.203 381.393 134.203 380.508ZM141.419 380.54C141.419 379.932 141.291 379.404 141.035 378.956C140.79 378.508 140.465 378.167 140.059 377.932C139.654 377.697 139.217 377.58 138.747 377.58C138.278 377.58 137.841 377.697 137.435 377.932C137.03 378.156 136.699 378.492 136.443 378.94C136.198 379.377 136.075 379.9 136.075 380.508C136.075 381.116 136.198 381.649 136.443 382.108C136.699 382.567 137.03 382.919 137.435 383.164C137.851 383.399 138.289 383.516 138.747 383.516C139.217 383.516 139.654 383.399 140.059 383.164C140.465 382.929 140.79 382.588 141.035 382.14C141.291 381.681 141.419 381.148 141.419 380.54ZM146.359 377.42C146.626 376.972 146.978 376.625 147.415 376.38C147.863 376.124 148.391 375.996 148.999 375.996V377.884H148.535C147.821 377.884 147.277 378.065 146.903 378.428C146.541 378.791 146.359 379.42 146.359 380.316V384.956H144.535V376.14H146.359V377.42ZM152.756 385.1C152.062 385.1 151.438 384.977 150.884 384.732C150.34 384.476 149.908 384.135 149.588 383.708C149.268 383.271 149.097 382.785 149.076 382.252H150.964C150.996 382.625 151.172 382.94 151.492 383.196C151.822 383.441 152.233 383.564 152.724 383.564C153.236 383.564 153.63 383.468 153.908 383.276C154.196 383.073 154.34 382.817 154.34 382.508C154.34 382.177 154.18 381.932 153.86 381.772C153.55 381.612 153.054 381.436 152.372 381.244C151.71 381.063 151.172 380.887 150.756 380.716C150.34 380.545 149.977 380.284 149.668 379.932C149.369 379.58 149.22 379.116 149.22 378.54C149.22 378.071 149.358 377.644 149.636 377.26C149.913 376.865 150.308 376.556 150.82 376.332C151.342 376.108 151.94 375.996 152.612 375.996C153.614 375.996 154.42 376.252 155.028 376.764C155.646 377.265 155.977 377.953 156.02 378.828H154.196C154.164 378.433 154.004 378.119 153.716 377.884C153.428 377.649 153.038 377.532 152.548 377.532C152.068 377.532 151.7 377.623 151.444 377.804C151.188 377.985 151.06 378.225 151.06 378.524C151.06 378.759 151.145 378.956 151.316 379.116C151.486 379.276 151.694 379.404 151.94 379.5C152.185 379.585 152.548 379.697 153.028 379.836C153.668 380.007 154.19 380.183 154.596 380.364C155.012 380.535 155.369 380.791 155.668 381.132C155.966 381.473 156.121 381.927 156.132 382.492C156.132 382.993 155.993 383.441 155.716 383.836C155.438 384.231 155.044 384.54 154.532 384.764C154.03 384.988 153.438 385.1 152.756 385.1Z" fill="white"/>
<path d="M177.35 388.871C178.044 388.871 178.662 389.015 179.206 389.303C179.761 389.591 180.193 390.017 180.502 390.583C180.822 391.148 180.982 391.831 180.982 392.631V397.831H179.174V392.903C179.174 392.113 178.977 391.511 178.582 391.095C178.188 390.668 177.649 390.455 176.966 390.455C176.284 390.455 175.74 390.668 175.334 391.095C174.94 391.511 174.742 392.113 174.742 392.903V397.831H172.934V392.903C172.934 392.113 172.737 391.511 172.342 391.095C171.948 390.668 171.409 390.455 170.726 390.455C170.044 390.455 169.5 390.668 169.094 391.095C168.7 391.511 168.502 392.113 168.502 392.903V397.831H166.678V389.015H168.502V390.023C168.801 389.66 169.18 389.377 169.638 389.175C170.097 388.972 170.588 388.871 171.11 388.871C171.814 388.871 172.444 389.02 172.998 389.319C173.553 389.617 173.98 390.049 174.278 390.615C174.545 390.081 174.961 389.66 175.526 389.351C176.092 389.031 176.7 388.871 177.35 388.871ZM183.111 387.847C182.781 387.847 182.503 387.735 182.279 387.511C182.055 387.287 181.943 387.009 181.943 386.679C181.943 386.348 182.055 386.071 182.279 385.847C182.503 385.623 182.781 385.511 183.111 385.511C183.431 385.511 183.703 385.623 183.927 385.847C184.151 386.071 184.263 386.348 184.263 386.679C184.263 387.009 184.151 387.287 183.927 387.511C183.703 387.735 183.431 387.847 183.111 387.847ZM184.007 389.015V397.831H182.183V389.015H184.007ZM189.73 388.871C190.423 388.871 191.042 389.015 191.586 389.303C192.141 389.591 192.573 390.017 192.882 390.583C193.191 391.148 193.346 391.831 193.346 392.631V397.831H191.538V392.903C191.538 392.113 191.341 391.511 190.946 391.095C190.551 390.668 190.013 390.455 189.33 390.455C188.647 390.455 188.103 390.668 187.698 391.095C187.303 391.511 187.106 392.113 187.106 392.903V397.831H185.282V389.015H187.106V390.023C187.405 389.66 187.783 389.377 188.242 389.175C188.711 388.972 189.207 388.871 189.73 388.871Z" fill="white"/>
<rect x="234.887" y="363" width="71.189" height="94.0398" rx="15" fill="#191919"/>
<ellipse cx="253.575" cy="440.527" rx="12.7547" ry="12.0349" fill="#5D5D5D"/>
<ellipse cx="287.983" cy="440.527" rx="12.7547" ry="12.0349" fill="#5D5D5D"/>
<ellipse cx="253.575" cy="411.42" rx="12.7547" ry="12.0349" fill="#5D5D5D"/>
<ellipse cx="253.575" cy="382.312" rx="12.7547" ry="12.0349" fill="#E31919"/>
<path d="M293.238 442.449L288.492 446.927L283.746 442.449" stroke="white" stroke-width="2"/>
<path d="M293.238 434.239L288.492 438.717L283.746 434.239" stroke="white" stroke-width="2"/>
<rect x="406" y="363" width="158.989" height="109.713" rx="15" fill="#191919"/>
<rect width="1.47777" height="25.3915" transform="matrix(0.90392 0.427701 -0.469298 0.88304 507.63 378.362)" fill="white"/>
<path d="M425.259 393.697C427.563 391.705 429.375 390.073 430.695 388.801C432.039 387.505 433.155 386.161 434.043 384.769C434.931 383.377 435.375 381.985 435.375 380.593C435.375 379.153 435.027 378.025 434.331 377.209C433.659 376.393 432.591 375.985 431.127 375.985C429.711 375.985 428.607 376.441 427.815 377.353C427.047 378.241 426.639 379.441 426.591 380.953H422.631C422.703 378.217 423.519 376.129 425.079 374.689C426.663 373.225 428.667 372.493 431.091 372.493C433.707 372.493 435.747 373.213 437.211 374.653C438.699 376.093 439.443 378.013 439.443 380.413C439.443 382.141 438.999 383.809 438.111 385.417C437.247 387.001 436.203 388.429 434.979 389.701C433.779 390.949 432.243 392.401 430.371 394.057L428.751 395.497H440.163V398.917H422.667V395.929L425.259 393.697ZM441.248 385.813C441.248 381.661 441.944 378.421 443.336 376.093C444.752 373.741 447.176 372.565 450.608 372.565C454.04 372.565 456.452 373.741 457.844 376.093C459.26 378.421 459.968 381.661 459.968 385.813C459.968 390.013 459.26 393.301 457.844 395.677C456.452 398.029 454.04 399.205 450.608 399.205C447.176 399.205 444.752 398.029 443.336 395.677C441.944 393.301 441.248 390.013 441.248 385.813ZM455.936 385.813C455.936 383.869 455.804 382.225 455.54 380.881C455.3 379.537 454.796 378.445 454.028 377.605C453.26 376.741 452.12 376.309 450.608 376.309C449.096 376.309 447.956 376.741 447.188 377.605C446.42 378.445 445.904 379.537 445.64 380.881C445.4 382.225 445.28 383.869 445.28 385.813C445.28 387.829 445.4 389.521 445.64 390.889C445.88 392.257 446.384 393.361 447.152 394.201C447.944 395.041 449.096 395.461 450.608 395.461C452.12 395.461 453.26 395.041 454.028 394.201C454.82 393.361 455.336 392.257 455.576 390.889C455.816 389.521 455.936 387.829 455.936 385.813Z" fill="white"/>
<path d="M464.73 380.54C464.73 379.633 464.911 378.839 465.274 378.156C465.647 377.463 466.159 376.929 466.81 376.556C467.46 376.183 468.207 375.996 469.05 375.996C470.116 375.996 470.996 376.252 471.69 376.764C472.394 377.265 472.868 377.985 473.114 378.924H471.146C470.986 378.487 470.73 378.145 470.378 377.9C470.026 377.655 469.583 377.532 469.05 377.532C468.303 377.532 467.706 377.799 467.258 378.332C466.82 378.855 466.602 379.591 466.602 380.54C466.602 381.489 466.82 382.231 467.258 382.764C467.706 383.297 468.303 383.564 469.05 383.564C470.106 383.564 470.804 383.1 471.146 382.172H473.114C472.858 383.068 472.378 383.783 471.674 384.316C470.97 384.839 470.095 385.1 469.05 385.1C468.207 385.1 467.46 384.913 466.81 384.54C466.159 384.156 465.647 383.623 465.274 382.94C464.911 382.247 464.73 381.447 464.73 380.54ZM473.203 380.508C473.203 379.623 473.385 378.839 473.747 378.156C474.121 377.473 474.622 376.945 475.251 376.572C475.891 376.188 476.595 375.996 477.363 375.996C478.057 375.996 478.659 376.135 479.171 376.412C479.694 376.679 480.11 377.015 480.419 377.42V376.14H482.259V384.956H480.419V383.644C480.11 384.06 479.689 384.407 479.155 384.684C478.622 384.961 478.014 385.1 477.331 385.1C476.574 385.1 475.881 384.908 475.251 384.524C474.622 384.129 474.121 383.585 473.747 382.892C473.385 382.188 473.203 381.393 473.203 380.508ZM480.419 380.54C480.419 379.932 480.291 379.404 480.035 378.956C479.79 378.508 479.465 378.167 479.059 377.932C478.654 377.697 478.217 377.58 477.747 377.58C477.278 377.58 476.841 377.697 476.435 377.932C476.03 378.156 475.699 378.492 475.443 378.94C475.198 379.377 475.075 379.9 475.075 380.508C475.075 381.116 475.198 381.649 475.443 382.108C475.699 382.567 476.03 382.919 476.435 383.164C476.851 383.399 477.289 383.516 477.747 383.516C478.217 383.516 478.654 383.399 479.059 383.164C479.465 382.929 479.79 382.588 480.035 382.14C480.291 381.681 480.419 381.148 480.419 380.54ZM485.359 377.42C485.626 376.972 485.978 376.625 486.415 376.38C486.863 376.124 487.391 375.996 487.999 375.996V377.884H487.535C486.821 377.884 486.277 378.065 485.903 378.428C485.541 378.791 485.359 379.42 485.359 380.316V384.956H483.535V376.14H485.359V377.42ZM491.756 385.1C491.062 385.1 490.438 384.977 489.884 384.732C489.34 384.476 488.908 384.135 488.588 383.708C488.268 383.271 488.097 382.785 488.076 382.252H489.964C489.996 382.625 490.172 382.94 490.492 383.196C490.822 383.441 491.233 383.564 491.724 383.564C492.236 383.564 492.63 383.468 492.908 383.276C493.196 383.073 493.34 382.817 493.34 382.508C493.34 382.177 493.18 381.932 492.86 381.772C492.55 381.612 492.054 381.436 491.372 381.244C490.71 381.063 490.172 380.887 489.756 380.716C489.34 380.545 488.977 380.284 488.668 379.932C488.369 379.58 488.22 379.116 488.22 378.54C488.22 378.071 488.358 377.644 488.636 377.26C488.913 376.865 489.308 376.556 489.82 376.332C490.342 376.108 490.94 375.996 491.612 375.996C492.614 375.996 493.42 376.252 494.028 376.764C494.646 377.265 494.977 377.953 495.02 378.828H493.196C493.164 378.433 493.004 378.119 492.716 377.884C492.428 377.649 492.038 377.532 491.548 377.532C491.068 377.532 490.7 377.623 490.444 377.804C490.188 377.985 490.06 378.225 490.06 378.524C490.06 378.759 490.145 378.956 490.316 379.116C490.486 379.276 490.694 379.404 490.94 379.5C491.185 379.585 491.548 379.697 492.028 379.836C492.668 380.007 493.19 380.183 493.596 380.364C494.012 380.535 494.369 380.791 494.668 381.132C494.966 381.473 495.121 381.927 495.132 382.492C495.132 382.993 494.993 383.441 494.716 383.836C494.438 384.231 494.044 384.54 493.532 384.764C493.03 384.988 492.438 385.1 491.756 385.1Z" fill="white"/>
<path d="M516.35 388.871C517.044 388.871 517.662 389.015 518.206 389.303C518.761 389.591 519.193 390.017 519.502 390.583C519.822 391.148 519.982 391.831 519.982 392.631V397.831H518.174V392.903C518.174 392.113 517.977 391.511 517.582 391.095C517.188 390.668 516.649 390.455 515.966 390.455C515.284 390.455 514.74 390.668 514.334 391.095C513.94 391.511 513.742 392.113 513.742 392.903V397.831H511.934V392.903C511.934 392.113 511.737 391.511 511.342 391.095C510.948 390.668 510.409 390.455 509.726 390.455C509.044 390.455 508.5 390.668 508.094 391.095C507.7 391.511 507.502 392.113 507.502 392.903V397.831H505.678V389.015H507.502V390.023C507.801 389.66 508.18 389.377 508.638 389.175C509.097 388.972 509.588 388.871 510.11 388.871C510.814 388.871 511.444 389.02 511.998 389.319C512.553 389.617 512.98 390.049 513.278 390.615C513.545 390.081 513.961 389.66 514.526 389.351C515.092 389.031 515.7 388.871 516.35 388.871ZM522.111 387.847C521.781 387.847 521.503 387.735 521.279 387.511C521.055 387.287 520.943 387.009 520.943 386.679C520.943 386.348 521.055 386.071 521.279 385.847C521.503 385.623 521.781 385.511 522.111 385.511C522.431 385.511 522.703 385.623 522.927 385.847C523.151 386.071 523.263 386.348 523.263 386.679C523.263 387.009 523.151 387.287 522.927 387.511C522.703 387.735 522.431 387.847 522.111 387.847ZM523.007 389.015V397.831H521.183V389.015H523.007ZM528.73 388.871C529.423 388.871 530.042 389.015 530.586 389.303C531.141 389.591 531.573 390.017 531.882 390.583C532.191 391.148 532.346 391.831 532.346 392.631V397.831H530.538V392.903C530.538 392.113 530.341 391.511 529.946 391.095C529.551 390.668 529.013 390.455 528.33 390.455C527.647 390.455 527.103 390.668 526.698 391.095C526.303 391.511 526.106 392.113 526.106 392.903V397.831H524.282V389.015H526.106V390.023C526.405 389.66 526.783 389.377 527.242 389.175C527.711 388.972 528.207 388.871 528.73 388.871Z" fill="white"/>
<rect x="573.887" y="363" width="71.189" height="94.0398" rx="15" fill="#191919"/>
<ellipse cx="592.575" cy="440.527" rx="12.7547" ry="12.0349" fill="#5D5D5D"/>
<ellipse cx="626.983" cy="440.527" rx="12.7547" ry="12.0349" fill="#5D5D5D"/>
<ellipse cx="592.575" cy="411.42" rx="12.7547" ry="12.0349" fill="#5D5D5D"/>
<ellipse cx="592.575" cy="382.312" rx="12.7547" ry="12.0349" fill="#E31919"/>
<path d="M632.238 442.449L627.492 446.927L622.746 442.449" stroke="white" stroke-width="2"/>
<path d="M632.238 434.239L627.492 438.717L622.746 434.239" stroke="white" stroke-width="2"/>
<path d="M209 205.294L193.5 218L178 205.294" stroke="#1CCA00" stroke-width="7"/>
<path d="M209 182L193.5 194.706L178 182" stroke="#1CCA00" stroke-width="7"/>
<path d="M83.784 188.648C83.976 185.672 85.112 183.352 87.192 181.688C89.304 180.024 91.992 179.192 95.256 179.192C97.496 179.192 99.432 179.592 101.064 180.392C102.696 181.192 103.928 182.28 104.76 183.656C105.592 185.032 106.008 186.584 106.008 188.312C106.008 190.296 105.48 191.992 104.424 193.4C103.368 194.808 102.104 195.752 100.632 196.232V196.424C102.52 197 103.992 198.056 105.048 199.592C106.104 201.096 106.632 203.032 106.632 205.4C106.632 207.288 106.2 208.968 105.336 210.44C104.472 211.912 103.192 213.08 101.496 213.944C99.8 214.776 97.768 215.192 95.4 215.192C91.944 215.192 89.096 214.312 86.856 212.552C84.648 210.76 83.464 208.2 83.304 204.872H88.584C88.712 206.568 89.368 207.96 90.552 209.048C91.736 210.104 93.336 210.632 95.352 210.632C97.304 210.632 98.808 210.104 99.864 209.048C100.92 207.96 101.448 206.568 101.448 204.872C101.448 202.632 100.728 201.048 99.288 200.12C97.88 199.16 95.704 198.68 92.76 198.68H91.512V194.168H92.808C95.4 194.136 97.368 193.704 98.712 192.872C100.088 192.04 100.776 190.728 100.776 188.936C100.776 187.4 100.28 186.184 99.288 185.288C98.296 184.36 96.888 183.896 95.064 183.896C93.272 183.896 91.88 184.36 90.888 185.288C89.896 186.184 89.304 187.304 89.112 188.648H83.784ZM109.02 197.048C109.02 191.512 109.948 187.192 111.804 184.088C113.692 180.952 116.924 179.384 121.5 179.384C126.076 179.384 129.292 180.952 131.148 184.088C133.036 187.192 133.98 191.512 133.98 197.048C133.98 202.648 133.036 207.032 131.148 210.2C129.292 213.336 126.076 214.904 121.5 214.904C116.924 214.904 113.692 213.336 111.804 210.2C109.948 207.032 109.02 202.648 109.02 197.048ZM128.604 197.048C128.604 194.456 128.428 192.264 128.076 190.472C127.756 188.68 127.084 187.224 126.06 186.104C125.036 184.952 123.516 184.376 121.5 184.376C119.484 184.376 117.964 184.952 116.94 186.104C115.916 187.224 115.228 188.68 114.876 190.472C114.556 192.264 114.396 194.456 114.396 197.048C114.396 199.736 114.556 201.992 114.876 203.816C115.196 205.64 115.868 207.112 116.892 208.232C117.948 209.352 119.484 209.912 121.5 209.912C123.516 209.912 125.036 209.352 126.06 208.232C127.116 207.112 127.804 205.64 128.124 203.816C128.444 201.992 128.604 199.736 128.604 197.048ZM135.546 188.456C135.546 186.12 136.218 184.296 137.562 182.984C138.938 181.64 140.698 180.968 142.842 180.968C144.986 180.968 146.73 181.64 148.074 182.984C149.45 184.296 150.138 186.12 150.138 188.456C150.138 190.792 149.45 192.632 148.074 193.976C146.73 195.32 144.986 195.992 142.842 195.992C140.698 195.992 138.938 195.32 137.562 193.976C136.218 192.632 135.546 190.792 135.546 188.456ZM164.826 181.592L145.674 215H140.298L159.45 181.592H164.826ZM142.842 184.28C140.826 184.28 139.818 185.672 139.818 188.456C139.818 191.272 140.826 192.68 142.842 192.68C143.802 192.68 144.538 192.344 145.05 191.672C145.594 190.968 145.866 189.896 145.866 188.456C145.866 185.672 144.858 184.28 142.842 184.28ZM155.082 208.088C155.082 205.752 155.754 203.928 157.098 202.616C158.474 201.272 160.234 200.6 162.378 200.6C164.49 200.6 166.218 201.272 167.562 202.616C168.938 203.928 169.626 205.752 169.626 208.088C169.626 210.424 168.938 212.264 167.562 213.608C166.218 214.952 164.49 215.624 162.378 215.624C160.234 215.624 158.474 214.952 157.098 213.608C155.754 212.264 155.082 210.424 155.082 208.088ZM162.33 203.912C160.314 203.912 159.306 205.304 159.306 208.088C159.306 210.872 160.314 212.264 162.33 212.264C164.346 212.264 165.354 210.872 165.354 208.088C165.354 205.304 164.346 203.912 162.33 203.912Z" fill="#1CCA00"/>
<path d="M549 210.294L533.5 223L518 210.294" stroke="#1CCA00" stroke-width="7"/>
<path d="M549 187L533.5 199.706L518 187" stroke="#1CCA00" stroke-width="7"/>
<path d="M423.784 193.648C423.976 190.672 425.112 188.352 427.192 186.688C429.304 185.024 431.992 184.192 435.256 184.192C437.496 184.192 439.432 184.592 441.064 185.392C442.696 186.192 443.928 187.28 444.76 188.656C445.592 190.032 446.008 191.584 446.008 193.312C446.008 195.296 445.48 196.992 444.424 198.4C443.368 199.808 442.104 200.752 440.632 201.232V201.424C442.52 202 443.992 203.056 445.048 204.592C446.104 206.096 446.632 208.032 446.632 210.4C446.632 212.288 446.2 213.968 445.336 215.44C444.472 216.912 443.192 218.08 441.496 218.944C439.8 219.776 437.768 220.192 435.4 220.192C431.944 220.192 429.096 219.312 426.856 217.552C424.648 215.76 423.464 213.2 423.304 209.872H428.584C428.712 211.568 429.368 212.96 430.552 214.048C431.736 215.104 433.336 215.632 435.352 215.632C437.304 215.632 438.808 215.104 439.864 214.048C440.92 212.96 441.448 211.568 441.448 209.872C441.448 207.632 440.728 206.048 439.288 205.12C437.88 204.16 435.704 203.68 432.76 203.68H431.512V199.168H432.808C435.4 199.136 437.368 198.704 438.712 197.872C440.088 197.04 440.776 195.728 440.776 193.936C440.776 192.4 440.28 191.184 439.288 190.288C438.296 189.36 436.888 188.896 435.064 188.896C433.272 188.896 431.88 189.36 430.888 190.288C429.896 191.184 429.304 192.304 429.112 193.648H423.784ZM449.02 202.048C449.02 196.512 449.948 192.192 451.804 189.088C453.692 185.952 456.924 184.384 461.5 184.384C466.076 184.384 469.292 185.952 471.148 189.088C473.036 192.192 473.98 196.512 473.98 202.048C473.98 207.648 473.036 212.032 471.148 215.2C469.292 218.336 466.076 219.904 461.5 219.904C456.924 219.904 453.692 218.336 451.804 215.2C449.948 212.032 449.02 207.648 449.02 202.048ZM468.604 202.048C468.604 199.456 468.428 197.264 468.076 195.472C467.756 193.68 467.084 192.224 466.06 191.104C465.036 189.952 463.516 189.376 461.5 189.376C459.484 189.376 457.964 189.952 456.94 191.104C455.916 192.224 455.228 193.68 454.876 195.472C454.556 197.264 454.396 199.456 454.396 202.048C454.396 204.736 454.556 206.992 454.876 208.816C455.196 210.64 455.868 212.112 456.892 213.232C457.948 214.352 459.484 214.912 461.5 214.912C463.516 214.912 465.036 214.352 466.06 213.232C467.116 212.112 467.804 210.64 468.124 208.816C468.444 206.992 468.604 204.736 468.604 202.048ZM475.546 193.456C475.546 191.12 476.218 189.296 477.562 187.984C478.938 186.64 480.698 185.968 482.842 185.968C484.986 185.968 486.73 186.64 488.074 187.984C489.45 189.296 490.138 191.12 490.138 193.456C490.138 195.792 489.45 197.632 488.074 198.976C486.73 200.32 484.986 200.992 482.842 200.992C480.698 200.992 478.938 200.32 477.562 198.976C476.218 197.632 475.546 195.792 475.546 193.456ZM504.826 186.592L485.674 220H480.298L499.45 186.592H504.826ZM482.842 189.28C480.826 189.28 479.818 190.672 479.818 193.456C479.818 196.272 480.826 197.68 482.842 197.68C483.802 197.68 484.538 197.344 485.05 196.672C485.594 195.968 485.866 194.896 485.866 193.456C485.866 190.672 484.858 189.28 482.842 189.28ZM495.082 213.088C495.082 210.752 495.754 208.928 497.098 207.616C498.474 206.272 500.234 205.6 502.378 205.6C504.49 205.6 506.218 206.272 507.562 207.616C508.938 208.928 509.626 210.752 509.626 213.088C509.626 215.424 508.938 217.264 507.562 218.608C506.218 219.952 504.49 220.624 502.378 220.624C500.234 220.624 498.474 219.952 497.098 218.608C495.754 217.264 495.082 215.424 495.082 213.088ZM502.33 208.912C500.314 208.912 499.306 210.304 499.306 213.088C499.306 215.872 500.314 217.264 502.33 217.264C504.346 217.264 505.354 215.872 505.354 213.088C505.354 210.304 504.346 208.912 502.33 208.912Z" fill="#1CCA00"/>
<path d="M517 429.706L532.5 417L548 429.706" stroke="#E70909" stroke-width="7"/>
<path d="M517 453L532.5 440.294L548 453" stroke="#E70909" stroke-width="7"/>
<path d="M422.784 423.648C422.976 420.672 424.112 418.352 426.192 416.688C428.304 415.024 430.992 414.192 434.256 414.192C436.496 414.192 438.432 414.592 440.064 415.392C441.696 416.192 442.928 417.28 443.76 418.656C444.592 420.032 445.008 421.584 445.008 423.312C445.008 425.296 444.48 426.992 443.424 428.4C442.368 429.808 441.104 430.752 439.632 431.232V431.424C441.52 432 442.992 433.056 444.048 434.592C445.104 436.096 445.632 438.032 445.632 440.4C445.632 442.288 445.2 443.968 444.336 445.44C443.472 446.912 442.192 448.08 440.496 448.944C438.8 449.776 436.768 450.192 434.4 450.192C430.944 450.192 428.096 449.312 425.856 447.552C423.648 445.76 422.464 443.2 422.304 439.872H427.584C427.712 441.568 428.368 442.96 429.552 444.048C430.736 445.104 432.336 445.632 434.352 445.632C436.304 445.632 437.808 445.104 438.864 444.048C439.92 442.96 440.448 441.568 440.448 439.872C440.448 437.632 439.728 436.048 438.288 435.12C436.88 434.16 434.704 433.68 431.76 433.68H430.512V429.168H431.808C434.4 429.136 436.368 428.704 437.712 427.872C439.088 427.04 439.776 425.728 439.776 423.936C439.776 422.4 439.28 421.184 438.288 420.288C437.296 419.36 435.888 418.896 434.064 418.896C432.272 418.896 430.88 419.36 429.888 420.288C428.896 421.184 428.304 422.304 428.112 423.648H422.784ZM448.02 432.048C448.02 426.512 448.948 422.192 450.804 419.088C452.692 415.952 455.924 414.384 460.5 414.384C465.076 414.384 468.292 415.952 470.148 419.088C472.036 422.192 472.98 426.512 472.98 432.048C472.98 437.648 472.036 442.032 470.148 445.2C468.292 448.336 465.076 449.904 460.5 449.904C455.924 449.904 452.692 448.336 450.804 445.2C448.948 442.032 448.02 437.648 448.02 432.048ZM467.604 432.048C467.604 429.456 467.428 427.264 467.076 425.472C466.756 423.68 466.084 422.224 465.06 421.104C464.036 419.952 462.516 419.376 460.5 419.376C458.484 419.376 456.964 419.952 455.94 421.104C454.916 422.224 454.228 423.68 453.876 425.472C453.556 427.264 453.396 429.456 453.396 432.048C453.396 434.736 453.556 436.992 453.876 438.816C454.196 440.64 454.868 442.112 455.892 443.232C456.948 444.352 458.484 444.912 460.5 444.912C462.516 444.912 464.036 444.352 465.06 443.232C466.116 442.112 466.804 440.64 467.124 438.816C467.444 436.992 467.604 434.736 467.604 432.048ZM474.546 423.456C474.546 421.12 475.218 419.296 476.562 417.984C477.938 416.64 479.698 415.968 481.842 415.968C483.986 415.968 485.73 416.64 487.074 417.984C488.45 419.296 489.138 421.12 489.138 423.456C489.138 425.792 488.45 427.632 487.074 428.976C485.73 430.32 483.986 430.992 481.842 430.992C479.698 430.992 477.938 430.32 476.562 428.976C475.218 427.632 474.546 425.792 474.546 423.456ZM503.826 416.592L484.674 450H479.298L498.45 416.592H503.826ZM481.842 419.28C479.826 419.28 478.818 420.672 478.818 423.456C478.818 426.272 479.826 427.68 481.842 427.68C482.802 427.68 483.538 427.344 484.05 426.672C484.594 425.968 484.866 424.896 484.866 423.456C484.866 420.672 483.858 419.28 481.842 419.28ZM494.082 443.088C494.082 440.752 494.754 438.928 496.098 437.616C497.474 436.272 499.234 435.6 501.378 435.6C503.49 435.6 505.218 436.272 506.562 437.616C507.938 438.928 508.626 440.752 508.626 443.088C508.626 445.424 507.938 447.264 506.562 448.608C505.218 449.952 503.49 450.624 501.378 450.624C499.234 450.624 497.474 449.952 496.098 448.608C494.754 447.264 494.082 445.424 494.082 443.088ZM501.33 438.912C499.314 438.912 498.306 440.304 498.306 443.088C498.306 445.872 499.314 447.264 501.33 447.264C503.346 447.264 504.354 445.872 504.354 443.088C504.354 440.304 503.346 438.912 501.33 438.912Z" fill="#E70909"/>
<path d="M174 429.706L189.5 417L205 429.706" stroke="#E70909" stroke-width="7"/>
<path d="M174 453L189.5 440.294L205 453" stroke="#E70909" stroke-width="7"/>
<path d="M79.784 423.648C79.976 420.672 81.112 418.352 83.192 416.688C85.304 415.024 87.992 414.192 91.256 414.192C93.496 414.192 95.432 414.592 97.064 415.392C98.696 416.192 99.928 417.28 100.76 418.656C101.592 420.032 102.008 421.584 102.008 423.312C102.008 425.296 101.48 426.992 100.424 428.4C99.368 429.808 98.104 430.752 96.632 431.232V431.424C98.52 432 99.992 433.056 101.048 434.592C102.104 436.096 102.632 438.032 102.632 440.4C102.632 442.288 102.2 443.968 101.336 445.44C100.472 446.912 99.192 448.08 97.496 448.944C95.8 449.776 93.768 450.192 91.4 450.192C87.944 450.192 85.096 449.312 82.856 447.552C80.648 445.76 79.464 443.2 79.304 439.872H84.584C84.712 441.568 85.368 442.96 86.552 444.048C87.736 445.104 89.336 445.632 91.352 445.632C93.304 445.632 94.808 445.104 95.864 444.048C96.92 442.96 97.448 441.568 97.448 439.872C97.448 437.632 96.728 436.048 95.288 435.12C93.88 434.16 91.704 433.68 88.76 433.68H87.512V429.168H88.808C91.4 429.136 93.368 428.704 94.712 427.872C96.088 427.04 96.776 425.728 96.776 423.936C96.776 422.4 96.28 421.184 95.288 420.288C94.296 419.36 92.888 418.896 91.064 418.896C89.272 418.896 87.88 419.36 86.888 420.288C85.896 421.184 85.304 422.304 85.112 423.648H79.784ZM105.02 432.048C105.02 426.512 105.948 422.192 107.804 419.088C109.692 415.952 112.924 414.384 117.5 414.384C122.076 414.384 125.292 415.952 127.148 419.088C129.036 422.192 129.98 426.512 129.98 432.048C129.98 437.648 129.036 442.032 127.148 445.2C125.292 448.336 122.076 449.904 117.5 449.904C112.924 449.904 109.692 448.336 107.804 445.2C105.948 442.032 105.02 437.648 105.02 432.048ZM124.604 432.048C124.604 429.456 124.428 427.264 124.076 425.472C123.756 423.68 123.084 422.224 122.06 421.104C121.036 419.952 119.516 419.376 117.5 419.376C115.484 419.376 113.964 419.952 112.94 421.104C111.916 422.224 111.228 423.68 110.876 425.472C110.556 427.264 110.396 429.456 110.396 432.048C110.396 434.736 110.556 436.992 110.876 438.816C111.196 440.64 111.868 442.112 112.892 443.232C113.948 444.352 115.484 444.912 117.5 444.912C119.516 444.912 121.036 444.352 122.06 443.232C123.116 442.112 123.804 440.64 124.124 438.816C124.444 436.992 124.604 434.736 124.604 432.048ZM131.546 423.456C131.546 421.12 132.218 419.296 133.562 417.984C134.938 416.64 136.698 415.968 138.842 415.968C140.986 415.968 142.73 416.64 144.074 417.984C145.45 419.296 146.138 421.12 146.138 423.456C146.138 425.792 145.45 427.632 144.074 428.976C142.73 430.32 140.986 430.992 138.842 430.992C136.698 430.992 134.938 430.32 133.562 428.976C132.218 427.632 131.546 425.792 131.546 423.456ZM160.826 416.592L141.674 450H136.298L155.45 416.592H160.826ZM138.842 419.28C136.826 419.28 135.818 420.672 135.818 423.456C135.818 426.272 136.826 427.68 138.842 427.68C139.802 427.68 140.538 427.344 141.05 426.672C141.594 425.968 141.866 424.896 141.866 423.456C141.866 420.672 140.858 419.28 138.842 419.28ZM151.082 443.088C151.082 440.752 151.754 438.928 153.098 437.616C154.474 436.272 156.234 435.6 158.378 435.6C160.49 435.6 162.218 436.272 163.562 437.616C164.938 438.928 165.626 440.752 165.626 443.088C165.626 445.424 164.938 447.264 163.562 448.608C162.218 449.952 160.49 450.624 158.378 450.624C156.234 450.624 154.474 449.952 153.098 448.608C151.754 447.264 151.082 445.424 151.082 443.088ZM158.33 438.912C156.314 438.912 155.306 440.304 155.306 443.088C155.306 445.872 156.314 447.264 158.33 447.264C160.346 447.264 161.354 445.872 161.354 443.088C161.354 440.304 160.346 438.912 158.33 438.912Z" fill="#E70909"/>
</svg>
