<svg width="18" height="19" viewBox="0 0 18 19" fill="none" xmlns="http://www.w3.org/2000/svg">
<path d="M1 15L4 1" stroke="#0057FF" stroke-width="2" stroke-linecap="round"/>
<path d="M17 15L14 1" stroke="#0057FF" stroke-width="2" stroke-linecap="round"/>
<path d="M9 8L9 6" stroke="#0057FF" stroke-width="2" stroke-linecap="round"/>
<path d="M9 3L9 1" stroke="#0057FF" stroke-width="2" stroke-linecap="round"/>
<path d="M6.15763 16.54L8.27614 12.0382C8.5072 11.5472 8.62273 11.3017 8.78145 11.2246C8.91943 11.1575 9.08057 11.1575 9.21855 11.2246C9.37727 11.3017 9.4928 11.5472 9.72386 12.0382L11.8424 16.54C12.1894 17.2774 12.3628 17.6461 12.2969 17.8379C12.24 18.0035 12.1006 18.1273 11.9294 18.1642C11.7311 18.2069 11.3856 17.991 10.6945 17.5591L9.424 16.765L9.42399 16.765C9.27018 16.6689 9.19327 16.6208 9.11079 16.6021C9.03786 16.5855 8.96214 16.5855 8.88921 16.6021C8.80673 16.6208 8.72982 16.6689 8.576 16.765L8.576 16.765L7.30548 17.5591C6.61444 17.991 6.26892 18.2069 6.07064 18.1642C5.89941 18.1273 5.75997 18.0035 5.70306 17.8379C5.63715 17.6461 5.81064 17.2774 6.15763 16.54Z" fill="#0057FF"/>
</svg>
